<?xml version="1.0" encoding="UTF-8" standalone="no"?>
<svg width="16" height="16" viewBox="0 0 119 133" version="1.1" id="svg52" xmlns="http://www.w3.org/2000/svg" xmlns:svg="http://www.w3.org/2000/svg">
<defs id="defs56" />
<path fill="#fff" d="m 118.772,19.794 c 0,6.668 -2.995,12.593 -7.56,16.188 L 66.905,75.552 C 66.082,76.257 65.012,75.12 65.606,74.17 L 81.86,41.63 C 82.315,40.72 81.724,39.6 80.79,39.6 H 17.75 C 7.988,39.6 0,30.688 0,19.8 0,8.908 7.988,0 17.751,0 h 83.27 c 9.763,-0.006 17.75,8.905 17.75,19.794 z M 17.752,132.379 h 83.268 c 9.764,0 17.752,-8.91 17.752,-19.8 0,-10.891 -7.988,-19.8 -17.752,-19.8 H 37.983 c -0.935,0 -1.525,-1.12 -1.07,-2.03 l 16.253,-32.54 c 0.593,-0.95 -0.477,-2.087 -1.3,-1.381 L 7.56,96.392 C 2.995,99.983 0,105.91 0,112.579 c 0,10.89 7.988,19.8 17.751,19.8 z" id="path50" />
</svg>
